<?xml version="1.0" encoding="UTF-8"?>
<svg width="20px" height="20px" viewBox="0 0 20 20" version="1.1" xmlns="http://www.w3.org/2000/svg" xmlns:xlink="http://www.w3.org/1999/xlink">
    <!-- Generator: Sketch 57 (83077) - https://sketch.com -->
    <title>bad_weather</title>
    <desc>Created with Sketch.</desc>
    <g id="UI设计图" stroke="none" stroke-width="1" fill="none" fill-rule="evenodd">
        <g id="事件管理" transform="translate(-625.000000, -215.000000)" fill="#FFFFFF" fill-rule="nonzero">
            <g id="编组-24" transform="translate(103.000000, 103.000000)">
                <g id="编组-16" transform="translate(294.000000, 0.000000)">
                    <g id="编组-15" transform="translate(56.000000, 32.000000)">
                        <g id="编组-5">
                            <g id="编组-10" transform="translate(3.000000, 72.000000)">
                                <g id="编组-26" transform="translate(157.000000, 0.000000)">
                                    <g id="编组-25" transform="translate(12.000000, 8.000000)">
                                        <g id="bad_weather">
                                            <g transform="translate(0.000000, 1.000000)" id="形状">
                                                <path d="M4.25222024,9.22206364 C4.24097098,9.11902382 4.23253403,9.01598401 4.2269094,8.91294419 C4.22128476,8.80990438 4.21847244,8.70686456 4.21847244,8.60382475 C4.21847244,8.00848358 4.32815273,7.44748902 4.5475133,6.92084107 C4.76687387,6.39419312 5.06779157,5.93623837 5.45026641,5.54697684 C5.83274125,5.1577153 6.27989933,4.85145807 6.79174065,4.62820513 C7.30358197,4.40495219 7.85198339,4.29332572 8.43694492,4.29332572 C8.88691532,4.29332572 9.3143872,4.36201893 9.71936056,4.49940535 C10.1243339,4.63679177 10.4983718,4.8256981 10.8414742,5.06612435 C11.1845767,5.3065506 11.4854944,5.59277231 11.7442273,5.92478949 C12.0029603,6.25680667 12.2110716,6.61744603 12.3685613,7.00670757 C12.0760805,7.04105417 11.7920367,7.08684964 11.5164298,7.14409398 C11.240823,7.20133833 10.973653,7.2643071 10.7149201,7.33300031 C10.4899349,6.92084104 10.1805802,6.58882385 9.78685611,6.33694875 C9.39313201,6.08507365 8.94316162,5.95913609 8.43694492,5.95913608 C8.0769686,5.95913608 7.74230312,6.02782929 7.43294847,6.16521571 C7.12359382,6.30260213 6.85079927,6.49150846 6.6145648,6.73193471 C6.37833034,6.97236095 6.19271755,7.25285823 6.05772643,7.57342655 C5.92273532,7.89399486 5.85523976,8.23746092 5.85523976,8.60382471 L5.85523976,8.74121113 C5.85523976,8.78700661 5.86086439,8.83852651 5.87211365,8.89577086 C5.70337475,8.91866859 5.51213733,8.95587742 5.29840139,9.00739733 C5.08466544,9.05891724 4.82030784,9.11329937 4.50532856,9.17054371 L4.25222024,9.22206364 Z M2.54795735,4.138766 C2.33422142,3.93268637 2.22735345,3.68081126 2.22735345,3.38314067 C2.22735345,3.08547009 2.33422142,2.83359498 2.54795735,2.62751535 C2.75044402,2.40998685 2.99792774,2.3012226 3.2904085,2.3012226 C3.58288927,2.3012226 3.83037298,2.40998685 4.03285966,2.62751535 L4.77531081,3.38314067 C4.98904675,3.5892203 5.09591471,3.84109541 5.09591471,4.138766 C5.09591471,4.43643659 4.98904675,4.69403613 4.77531081,4.91156463 C4.57282414,5.11764426 4.32534042,5.22068407 4.03285966,5.22068407 C3.7403789,5.22068407 3.49289518,5.11764426 3.2904085,4.91156463 L2.54795735,4.138766 Z M8.43694492,3.22858093 C8.14446416,3.22858093 7.89698044,3.1226789 7.69449376,2.91087483 C7.49200709,2.69907076 7.39076375,2.44433343 7.39076375,2.14666284 L7.39076375,1.06474477 C7.39076375,0.767074183 7.49200709,0.515199075 7.69449376,0.309119445 C7.89698044,0.103039815 8.14446416,0 8.43694492,0 C8.72942568,0 8.97972172,0.103039815 9.18783303,0.309119445 C9.39594434,0.515199075 9.49999999,0.767074183 9.49999999,1.06474477 L9.49999999,2.14666284 C9.49999999,2.44433343 9.39594434,2.69907076 9.18783303,2.91087483 C8.97972172,3.1226789 8.72942568,3.22858093 8.43694492,3.22858093 Z M13.5666074,4.94591123 C13.3641208,5.15199086 13.1166371,5.25503068 12.8241563,5.25503068 C12.5316755,5.25503068 12.2785672,5.15199086 12.0648312,4.94591123 C11.8623446,4.72838274 11.7611012,4.47078319 11.7611012,4.1731126 C11.7611012,3.87544202 11.8623446,3.62356691 12.0648312,3.41748728 L12.8241563,2.66186195 C13.026643,2.44433345 13.2741267,2.33556921 13.5666074,2.33556921 C13.8590882,2.33556921 14.1065719,2.44433345 14.3090586,2.66186195 C14.5227945,2.86794158 14.6296625,3.11981669 14.6296625,3.41748728 C14.6296625,3.71515787 14.5227945,3.96703297 14.3090586,4.1731126 L13.5666074,4.94591123 Z M13.9884547,7.52190666 C14.7871522,7.52190666 15.4621078,7.62208426 16.0133215,7.82243946 C16.5645352,8.02279466 17.0257549,8.28611864 17.3969805,8.61241139 C17.768206,8.93870414 18.0606868,9.31365459 18.2744227,9.73726273 C18.4881587,10.1608709 18.6484606,10.5902034 18.7553286,11.0252604 C18.8621966,11.4603175 18.9296921,11.8839256 18.9578153,12.2960849 C18.9859384,12.7082441 19,13.0746079 19,13.3951762 C19,13.8760287 18.8959443,14.3454323 18.687833,14.8033871 C18.4797217,15.2613418 18.178804,15.6677767 17.7850799,16.0226916 C17.3913558,16.3776065 16.9132623,16.660966 16.3507993,16.8727701 C15.7883363,17.0845742 15.1527531,17.1904762 14.4440497,17.1904762 L5.97335699,17.1904762 C5.26465361,17.1904762 4.66281821,17.096023 4.16785077,16.9071167 C3.67288334,16.7182104 3.27353461,16.4663352 2.96980459,16.1514914 C2.66607456,15.8366475 2.446714,15.4731459 2.31172288,15.0609866 C2.17673176,14.6488274 2.10923621,14.2137704 2.10923621,13.7558156 C2.10923621,13.2978609 2.19641797,12.8656661 2.3707815,12.4592312 C2.54514503,12.0527964 2.78137949,11.6950193 3.07948488,11.3858998 C3.37759026,11.0767804 3.72631732,10.8334919 4.12566604,10.6560345 C4.52501477,10.478577 4.95529896,10.3898483 5.41651862,10.3898483 C6.06897569,10.3898483 6.65674952,10.5615813 7.17984011,10.9050473 C7.7029307,11.2485134 8.09946711,11.7007437 8.36944935,12.2617383 C8.36944935,11.7007437 8.47069268,11.1368869 8.67317936,10.5701679 C8.87566603,10.0034489 9.19908225,9.49397429 9.64342803,9.04174399 C10.0877738,8.58951368 10.6671107,8.22314989 11.3814387,7.94265261 C12.0957667,7.66215533 12.964772,7.52190666 13.9884547,7.52190666 L13.9884547,7.52190666 Z M3.15541739,8.60382475 C3.15541739,8.90149533 3.05417405,9.15337044 2.85168738,9.35945007 C2.6492007,9.5655297 2.40171698,9.66856952 2.10923622,9.66856952 L1.04618117,9.66856952 C0.753700404,9.66856952 0.506216685,9.5655297 0.303730011,9.35945007 C0.101243337,9.15337044 0,8.90149533 0,8.60382475 C0,8.30615416 0.101243337,8.05141683 0.303730011,7.83961276 C0.506216685,7.62780869 0.753700404,7.52190666 1.04618117,7.52190666 L2.10923622,7.52190666 C2.40171698,7.52190666 2.6492007,7.62780869 2.85168738,7.83961276 C3.05417405,8.05141683 3.15541739,8.30615416 3.15541739,8.60382475 Z"></path>
                                            </g>
                                        </g>
                                    </g>
                                </g>
                            </g>
                        </g>
                    </g>
                </g>
            </g>
        </g>
    </g>
</svg>