<?xml version="1.0" encoding="UTF-8"?>
<svg width="20px" height="20px" viewBox="0 0 20 20" version="1.1" xmlns="http://www.w3.org/2000/svg" xmlns:xlink="http://www.w3.org/1999/xlink">
    <!-- Generator: Sketch 57 (83077) - https://sketch.com -->
    <title>dangerous_accident</title>
    <desc>Created with Sketch.</desc>
    <g id="UI设计图" stroke="none" stroke-width="1" fill="none" fill-rule="evenodd">
        <g id="事件管理" transform="translate(-780.000000, -216.000000)" fill="#FFFFFF">
            <g id="编组-24" transform="translate(103.000000, 103.000000)">
                <g id="编组-16" transform="translate(294.000000, 0.000000)">
                    <g id="编组-15" transform="translate(56.000000, 32.000000)">
                        <g id="编组-5">
                            <g id="编组-10" transform="translate(3.000000, 72.000000)">
                                <g id="编组-27" transform="translate(314.000000, 0.000000)">
                                    <g id="dangerous_accident" transform="translate(10.000000, 9.000000)">
                                        <g transform="translate(2.000000, 1.000000)" id="编组-22">
                                            <g>
                                                <g id="编组-23" transform="translate(0.000000, 0.882353)">
                                                    <g id="编组-21" transform="translate(0.000000, 4.411765)">
                                                        <path d="M5.04929577,4.2871267 L5.04929577,0.705699869 C5.04929577,0.315800691 4.75839653,0 4.3992416,0 L3.70043337,0 C3.2063922,0 2.73022752,0.204652962 2.36782232,0.571616894 L0.412784399,2.55639778 C0.149634029,2.82291509 0.000152746238,3.1960247 0,3.58671958 L0,8.02733601 C0,8.41723519 0.290899242,8.73303588 0.650054171,8.73303588 L0.979956663,8.73303588 C0.979956663,7.48394711 1.9127844,6.4677393 3.06500542,6.4677393 C4.21722644,6.4677393 5.14842904,7.48041861 5.14842904,8.73127163 C5.14842904,8.73303588 9.51191766,8.73480013 9.51191766,8.73303588 C9.51191766,7.48394711 10.4447454,6.4677393 11.5953413,6.4677393 C12.7459372,6.4677393 13.6787649,7.48571136 13.6787649,8.73480013 C13.6787649,8.73656438 14.3499458,8.73303588 14.3499458,8.73303588 C14.7091008,8.73303588 15,8.41723519 15,8.02733601 L15,5.69852644 C15,5.30862726 14.7091008,4.99282657 14.3499458,4.99282657 L5.69934995,4.99282657 C5.34019502,4.99282657 5.04929577,4.67702588 5.04929577,4.2871267 Z" id="路径" fill-rule="nonzero"></path>
                                                        <rect id="矩形" x="5.625" y="0.485294118" width="9.375" height="3.88235294" rx="1"></rect>
                                                        <path d="M1.875,8.73529412 C1.875,9.2713352 2.29473305,9.70588235 2.8125,9.70588235 C3.33026695,9.70588235 3.75,9.2713352 3.75,8.73529412 C3.75,8.19925304 3.33026695,7.76470588 2.8125,7.76470588 C2.29473305,7.76470588 1.875,8.19925304 1.875,8.73529412 L1.875,8.73529412 Z" id="路径" fill-rule="nonzero"></path>
                                                        <path d="M11.25,8.73529412 C11.25,9.2713352 11.669733,9.70588235 12.1875,9.70588235 C12.705267,9.70588235 13.125,9.2713352 13.125,8.73529412 C13.125,8.19925304 12.705267,7.76470588 12.1875,7.76470588 C11.669733,7.76470588 11.25,8.19925304 11.25,8.73529412 L11.25,8.73529412 Z" id="路径" fill-rule="nonzero"></path>
                                                    </g>
                                                    <g id="编组" transform="translate(6.176471, 0.000000)" fill-rule="nonzero">
                                                        <path d="M3.52940992,2.58489933 C3.52940992,3.59372046 2.73921302,4.41176471 1.76470527,4.41176471 C0.790197522,4.41176471 6.15378465e-07,3.59371605 6.15378465e-07,2.58489933 C-0.000390731918,2.09940879 0.185884953,1.63411546 0.517451797,1.29235278 L0.516866052,1.29176263 L1.76470527,0 L3.01254449,1.29176703 L3.01195874,1.29235278 C3.34352558,1.63411546 3.52980127,2.09940879 3.52940992,2.58489933 Z M3.02450601,2.66901767 L3.02450601,2.68744884 L3.0235283,2.68744884 C3.02054986,2.62459442 2.96937949,2.57479664 2.90646741,2.57352794 C2.84355278,2.57468957 2.79229753,2.6244009 2.78921273,2.68725065 L2.78686094,2.68725065 L2.7884288,2.69568451 L2.7884288,2.6968604 C2.7884288,2.71254781 2.79117255,2.72783885 2.79685824,2.74215659 C2.83302161,2.97398577 2.76949264,3.21029878 2.62195834,3.39274368 C2.46059321,3.59291073 2.20860571,3.69741296 1.95294078,3.67019328 L1.95294078,3.67568519 C1.94980066,3.67548701 1.9470569,3.67470308 1.943723,3.67470308 C1.89790184,3.67514733 1.85650796,3.70215666 1.83764592,3.74391794 C1.81778539,3.78641133 1.82274964,3.83636308 1.85058516,3.87411639 C1.87843226,3.91137069 1.92411596,3.92862596 1.96823621,3.91881802 C1.99019503,3.92039029 2.01235205,3.92156618 2.03470284,3.92156618 C2.33529126,3.92156618 2.6201923,3.78137042 2.81176171,3.53921089 C3.00424239,3.29310455 3.08172615,2.97617084 3.02450601,2.66901767 L3.02450601,2.66901767 Z" id="形状"></path>
                                                    </g>
                                                    <g id="编组备份" transform="translate(10.588235, 0.882353)" fill-rule="nonzero">
                                                        <path d="M2.64705652,2.06791947 C2.64705652,2.87497636 2.05440905,3.52941176 1.32352849,3.52941176 C0.592647936,3.52941176 4.61522813e-07,2.87497284 4.61522813e-07,2.06791947 C-0.000293048848,1.67952703 0.139413667,1.30729237 0.388088713,1.03388222 L0.387649405,1.0334101 L1.32352849,0 L2.25940758,1.03341362 L2.25896827,1.03388222 C2.50764332,1.30729237 2.64735003,1.67952703 2.64705652,2.06791947 Z M2.26837872,2.13521414 L2.26837872,2.14995907 L2.26764544,2.14995907 C2.26541161,2.09967554 2.22703385,2.05983731 2.1798498,2.05882235 C2.13266385,2.05975166 2.09422242,2.09952072 2.09190882,2.14980052 L2.09014498,2.14980052 L2.09132087,2.15654761 L2.09132087,2.15748832 C2.09132087,2.17003825 2.09337869,2.18227108 2.09764295,2.19372527 C2.12476547,2.37918861 2.07711876,2.56823902 1.96646807,2.71419495 C1.84544427,2.87432858 1.65645371,2.95793037 1.46470508,2.93615462 L1.46470508,2.94054815 C1.46234999,2.9403896 1.46029217,2.93976246 1.45779175,2.93976246 C1.42342588,2.94011786 1.39238048,2.96172533 1.37823396,2.99513435 C1.36333857,3.02912907 1.36706176,3.06909046 1.38793839,3.09929311 C1.40882371,3.12909655 1.44308647,3.14290076 1.47617664,3.13505442 C1.49264576,3.13631223 1.50926351,3.13725294 1.5260266,3.13725294 C1.75146784,3.13725294 1.96514354,3.02509633 2.10882055,2.83136871 C2.25318101,2.63448364 2.31129381,2.38093667 2.26837872,2.13521414 L2.26837872,2.13521414 Z" id="形状"></path>
                                                    </g>
                                                </g>
                                            </g>
                                        </g>
                                    </g>
                                </g>
                            </g>
                        </g>
                    </g>
                </g>
            </g>
        </g>
    </g>
</svg>