<?xml version="1.0" encoding="UTF-8"?>
<svg width="20px" height="20px" viewBox="0 0 20 20" version="1.1" xmlns="http://www.w3.org/2000/svg" xmlns:xlink="http://www.w3.org/1999/xlink">
    <!-- Generator: Sketch 57 (83077) - https://sketch.com -->
    <title>electrome_fault</title>
    <desc>Created with Sketch.</desc>
    <g id="UI设计图" stroke="none" stroke-width="1" fill="none" fill-rule="evenodd">
        <g id="事件管理" transform="translate(-1317.000000, -216.000000)" fill="#FFFFFF" fill-rule="nonzero">
            <g id="编组-24" transform="translate(103.000000, 103.000000)">
                <g id="编组-16" transform="translate(294.000000, 0.000000)">
                    <g id="编组-15" transform="translate(56.000000, 32.000000)">
                        <g id="编组-5">
                            <g id="编组-10" transform="translate(3.000000, 72.000000)">
                                <g id="编组-33" transform="translate(851.000000, 0.000000)">
                                    <g id="electrome_fault" transform="translate(10.000000, 9.000000)">
                                        <g transform="translate(2.000000, 2.000000)">
                                            <g id="编组" transform="translate(0.000000, 5.204082)">
                                                <path d="M14.6395051,3.46974416 L8.58870703,3.46974416 L8.58870703,0.781636143 C8.58870703,0.349854629 8.23941,0 7.80831667,0 C7.37722333,0 7.02792631,0.349854629 7.02792631,0.781636143 L7.02792631,3.46974416 L0.974935316,3.46974416 C0.43551441,3.46974416 0,3.90816948 0,4.44623582 L0,8.81942671 C0,9.35970872 0.437726551,9.79591837 0.974935316,9.79591837 L14.637293,9.79591837 C15.1767139,9.79591837 15.6122366,9.35749305 15.6122366,8.81942671 L15.6122366,4.44846112 C15.614439,3.90817911 15.1767139,3.46975539 14.6395035,3.46975539 L14.6395051,3.46974416 Z M2.40748882,7.41556721 C1.97639548,7.41556721 1.62709846,7.06571258 1.62709846,6.63393107 C1.62709846,6.20214956 1.97639548,5.85229493 2.40748882,5.85229493 C2.83858215,5.85229493 3.18787918,6.20214956 3.18787918,6.63393107 C3.18787918,6.84207099 3.10608191,7.04135625 2.96017295,7.18749748 C2.81205345,7.33363904 2.61308646,7.41556721 2.40748882,7.41556721 L2.40748882,7.41556721 Z M4.77297261,7.41556721 C4.34187927,7.41556721 3.99258225,7.06571258 3.99258225,6.63393107 C3.99258225,6.20214956 4.34187927,5.85229493 4.77297261,5.85229493 C5.20406594,5.85229493 5.55336297,6.20214956 5.55336297,6.63393107 C5.55336297,6.84207099 5.4715657,7.04135625 5.32565674,7.18749748 C5.1797481,7.33363904 4.98078239,7.41556721 4.77297261,7.41556721 L4.77297261,7.41556721 Z" id="形状"></path>
                                            </g>
                                            <path d="M10.5244367,7.04021177 C10.0801172,7.04021177 9.72010363,6.65801207 9.72010363,6.1863111 C9.72010363,5.06632366 8.86336503,4.15677741 7.8083812,4.15677741 C6.75340728,4.15677741 5.89665877,5.06631314 5.89665877,6.1863111 C5.89665877,6.49110336 5.7439949,6.77412324 5.49335306,6.92651936 C5.24499056,7.07891531 4.93738249,7.07891531 4.68902,6.92651936 C4.4406575,6.77412341 4.28571429,6.49110336 4.28571429,6.1863111 C4.28571429,4.12292525 5.86248009,2.44897959 7.80609953,2.44897959 C9.74971897,2.44897959 11.3265306,4.12290946 11.3265306,6.18629532 C11.3310452,6.65799628 10.9687528,7.04019598 10.5244334,7.04019598 L10.5244367,7.04021177 Z" id="路径"></path>
                                            <path d="M13.2564037,7.04081633 C12.801854,7.04081633 12.4335512,6.66747871 12.4335512,6.20671511 C12.4335512,3.69968781 10.4288634,1.66997658 7.95799545,1.66997658 C5.48477807,1.66997658 3.48243965,3.70206934 3.48243965,6.20671511 C3.48243965,6.66747871 3.11413689,7.04081633 2.65958717,7.04081633 C2.20503745,7.04081633 1.83673469,6.66747871 1.83673469,6.20671511 C1.83673469,3.99031965 3.00458008,1.94169328 4.89737183,0.831148296 C6.79249947,-0.277049432 9.12585097,-0.277049432 11.0209955,0.831148296 C12.9161232,1.93934602 14.0816327,3.98797239 14.0816327,6.20671511 C14.0793016,6.66747871 13.7109991,7.04081633 13.2564494,7.04081633 L13.2564037,7.04081633 Z" id="路径"></path>
                                        </g>
                                    </g>
                                </g>
                            </g>
                        </g>
                    </g>
                </g>
            </g>
        </g>
    </g>
</svg>