<?xml version="1.0" encoding="UTF-8"?>
<svg width="18px" height="18px" viewBox="0 0 18 18" version="1.1" xmlns="http://www.w3.org/2000/svg" xmlns:xlink="http://www.w3.org/1999/xlink">
    <title>icon_nav_equipment_pressed</title>
    <g id="页面-1" stroke="none" stroke-width="1" fill="none" fill-rule="evenodd">
        <g id="切图" transform="translate(-80.000000, -1596.000000)">
            <g id="编组" transform="translate(80.000000, 1596.000000)">
                <path d="M8.55000491,6.68985747 C8.82846284,6.52713708 9.17153716,6.52713708 9.44999509,6.68985747 C9.72845302,6.85257785 9.89999017,7.15329753 9.89999016,7.47873829 L9.89999016,7.47873829 L9.89999016,10.616859 L16.8750062,10.616859 C17.4963231,10.616859 18,11.1266534 18,11.7555166 L18,11.7555166 L18,16.8613175 C18,17.1633126 17.8814836,17.452941 17.6705056,17.6664861 C17.4595277,17.8800312 17.1733773,18 16.8750062,18 L16.8750062,18 L1.12499385,18 C0.826622664,18 0.540472348,17.8800312 0.329494368,17.6664861 C0.118516389,17.452941 0,17.1633126 0,16.8613175 L0,16.8613175 L0,11.7555415 C0,11.1266783 0.503676902,10.6168839 1.12499385,10.6168839 L1.12499385,10.6168839 L8.10000984,10.6168839 L8.10000984,7.47873829 C8.10000983,7.15329753 8.27154698,6.85257785 8.55000491,6.68985747 Z M10.9417658,3.50116312 C12.160039,4.21308154 12.9105066,5.5287596 12.9105066,6.95258862 C12.9105066,7.19418854 12.8156925,7.42589506 12.6469056,7.596732 C12.4781186,7.76756894 12.2491926,7.86353461 12.0104918,7.86353461 C11.7717953,7.86353461 11.5428756,7.76755942 11.374094,7.59672319 C11.2053124,7.42588697 11.1104951,7.19418423 11.1105016,6.95258862 C11.1105115,6.17965239 10.7031088,5.46542559 10.0417605,5.07895459 C9.38041226,4.69248359 8.56559473,4.69248359 7.90424645,5.07895459 C7.24289817,5.46542559 6.83549548,6.17965239 6.83550534,6.95258862 C6.83550534,7.45568332 6.43256051,7.86353461 5.93550288,7.86353461 C5.43844525,7.86353461 5.03550042,7.45568332 5.03550042,6.95258862 C5.03550042,5.5287596 5.78596795,4.21308154 7.00424114,3.50116312 C8.22251433,2.7892447 9.72349266,2.7892447 10.9417658,3.50116312 Z M12.3686054,0.937421112 C14.4655487,2.18731593 15.7274281,4.49031083 15.6644947,6.95258862 C15.6645012,7.19418423 15.5696839,7.42588697 15.4009023,7.59672319 C15.2321207,7.76755942 15.003201,7.86353461 14.7645045,7.86353461 C14.525808,7.86353461 14.2968883,7.76755942 14.1281067,7.59672319 C13.9593251,7.42588697 13.8645078,7.19418423 13.8645143,6.95258862 C13.9186326,5.14715038 12.9979039,3.45491294 11.4615001,2.53601009 C9.92509629,1.61710725 8.01640718,1.61710725 6.48000336,2.53601009 C4.94359954,3.45491294 4.02287082,5.14715038 4.07698912,6.95258862 C4.07698912,7.45568332 3.6740443,7.86353461 3.17698666,7.86353461 C2.67992903,7.86353461 2.2769842,7.45568332 2.2769842,6.95258862 C2.21405074,4.49031083 3.47593017,2.18731593 5.57287344,0.937421112 C7.66981671,-0.312473704 10.2716621,-0.312473704 12.3686054,0.937421112 Z" id="形状结合" fill="#FFFFFF" fill-rule="nonzero"></path>
                <circle id="椭圆形" fill="#5283FA" cx="3" cy="15" r="1"></circle>
                <circle id="椭圆形备份" fill="#5283FA" cx="6" cy="15" r="1"></circle>
            </g>
        </g>
    </g>
</svg>