<?xml version="1.0" encoding="UTF-8"?>
<svg width="18px" height="18px" viewBox="0 0 18 18" version="1.1" xmlns="http://www.w3.org/2000/svg" xmlns:xlink="http://www.w3.org/1999/xlink">
    <title>icon_nav_index_normal</title>
    <g id="页面-1" stroke="none" stroke-width="1" fill="none" fill-rule="evenodd">
        <g id="切图" transform="translate(-46.000000, -1562.000000)">
            <g id="编组" transform="translate(46.000000, 1562.000000)">
                <path d="M8.07892675,0.374276356 L0.234053073,7.82174776 C-0.0582924059,8.09030858 -0.0796462109,8.54420652 0.186195269,8.83901649 C0.452036749,9.13382647 0.905807376,9.15946541 1.20317868,8.89647808 L1.32792208,8.77806414 L1.32792208,16.5510613 C1.32744395,16.9351631 1.47972462,17.3036968 1.75121355,17.5754668 C2.02270249,17.8472368 2.39112345,17.9999437 2.77530578,17.9999437 L15.3203486,17.9999437 C15.704609,17.9999437 16.0731457,17.8474091 16.3447321,17.5756261 C16.6163184,17.3038431 16.7686609,16.9352411 16.7681826,16.5510613 L16.7681826,8.87306544 C17.0897234,9.16392249 17.5459149,9.14186058 17.8134152,8.84379963 C17.9420744,8.70135323 18.0088532,8.51363492 17.999056,8.32195472 C17.9892589,8.13027452 17.9036886,7.95033983 17.7611761,7.82174776 L10.0189793,0.374726599 C9.46863854,-0.1248338 8.62926752,-0.1248338 8.07892675,0.374276356 Z" id="路径" fill="#5283FA" fill-rule="nonzero"></path>
                <path d="M9,13 C10.1045695,13 11,13.8954305 11,15 L11,18 L11,18 L7,18 L7,15 C7,13.8954305 7.8954305,13 9,13 Z" id="矩形" fill="#B3C8FC"></path>
            </g>
        </g>
    </g>
</svg>