<?xml version="1.0" encoding="UTF-8"?>
<svg width="491px" height="44px" viewBox="0 0 491 44" version="1.1" xmlns="http://www.w3.org/2000/svg" xmlns:xlink="http://www.w3.org/1999/xlink">
    <title>logo_login</title>
    <g id="页面-1" stroke="none" stroke-width="1" fill="none" fill-rule="evenodd">
        <g id="切图" transform="translate(-38.000000, -106.000000)" fill="#FFFFFF">
            <g id="编组-23" transform="translate(38.000000, 106.000000)">
                <g id="编组-6" transform="translate(0.000000, 0.000767)">
                    <text id="广明高速数字孪生隧道运营管理平台" opacity="0.8" font-family="PangMenZhengDao" font-size="32" font-weight="normal" letter-spacing="0.6608688">
                        <tspan x="189" y="30.9992329">广明高速数字孪生隧道运营管理平台</tspan>
                    </text>
                    <rect id="矩形" opacity="0.4" x="178" y="3.99923291" width="1" height="36"></rect>
                    <path d="M35.7962996,5.20852561 C35.7968022,5.21267641 35.7969356,5.2140005 35.7970768,5.21561097 L35.7979332,5.22880622 C35.7980635,5.23161014 35.7981805,5.23472441 35.7982737,5.23816101 L35.7981878,5.27811669 C35.7850965,5.77664986 35.3142308,9.24201799 26.4667601,24.7028928 C26.4667601,24.7028928 18.3513568,38.2059339 12.8029509,44.0003413 C12.8029509,44.0003413 18.5118309,35.0634636 21.9493854,23.1313637 C21.9493854,23.1313637 23.1276649,18.4911353 22.5789376,15.0083188 C22.3211798,13.371836 21.5725947,12.5500676 20.3287736,11.6900912 C20.3287736,11.6900912 15.5166087,7.95833413 -1.42108547e-14,10.2990219 C-1.42108547e-14,10.2990219 16.2040608,1.72218223 29.854938,0.00340494829 C29.854938,0.00340494829 29.8858591,0.00182572802 29.9432637,0.000610499343 L30.1904905,1.18457327e-13 C31.5411494,0.0185635716 36.4756468,0.412191908 35.7962996,5.20852561 Z M50.0531574,15.4385128 C50.0531574,15.4385128 49.790991,18.9083973 42.1308521,29.2201793 C42.1308521,29.2201793 41.9481808,29.4571337 41.6352164,29.8594649 L41.4322217,30.1201362 C40.6699501,31.0979357 39.3792838,32.7419153 38.0452975,34.3891948 L37.6633989,34.8593633 C36.3255609,36.5012588 34.9906007,38.0833226 34.143593,38.9426745 C34.143593,38.9426745 35.8557937,35.7111889 37.4071983,32.187139 L37.6570721,31.6135711 C38.4833146,29.6962244 39.2329933,27.7398116 39.6102922,26.2084982 C39.6102922,26.2084982 42.3598068,19.4321424 37.4823942,18.3191106 C37.4823942,18.3191106 34.9289166,17.5664108 30.77158,18.777608 L31.8846117,16.0933411 C31.8846117,16.0933411 38.8246746,12.2957485 43.3423432,10.9534681 C43.3423432,10.9534681 52.0170544,7.74575007 50.0531574,15.4385128 Z M64.2807419,29.2542433 L67.8658386,32.4237532 L67.8658386,29.4267676 L69.0229566,29.4267676 L69.0229566,34.9695892 L64.2807419,30.7840373 L64.2807419,29.2542433 Z M108.095514,29.2473658 L111.68061,32.4168758 L111.68061,29.4198901 L112.838022,29.4198901 L112.838022,34.9627117 L108.095514,30.7771599 L108.095514,29.2473658 Z M99.9368471,33.1307209 L100.850903,33.8366892 C100.346262,34.4800551 99.7005447,34.8474408 98.9134575,34.9391403 L98.9134575,33.769972 C99.3316894,33.6862081 99.6729172,33.4731243 99.9368471,33.1307209 Z M133.483571,29.2866614 C134.270952,29.2866614 134.946941,29.5779248 135.51154,30.1610394 L134.672137,30.9572377 C134.311511,30.6177733 133.913853,30.4476002 133.47975,30.4476002 C132.98275,30.4476002 132.570984,30.6265905 132.244158,30.9848651 C131.951131,31.3014046 131.804765,31.6767258 131.804765,32.1108288 C131.804765,32.5763799 131.968178,32.971393 132.295004,33.2952803 C132.62477,33.6224005 133.018313,33.7855198 133.475929,33.7855198 C133.925315,33.7855198 134.307396,33.6326873 134.621291,33.3270224 L136.021471,33.3270224 C135.859527,33.6591391 135.657906,33.9386461 135.417489,34.1661313 C135.156204,34.4091937 134.856124,34.5990587 134.517541,34.7351383 C134.17837,34.871218 133.83244,34.9391109 133.47975,34.9391109 C132.951302,34.9391109 132.450482,34.7924505 131.977289,34.4997176 C131.535251,34.2278521 131.198138,33.8642873 130.965362,33.4090229 C130.758744,33.0090133 130.655288,32.5763799 130.655288,32.1108288 C130.655288,31.341964 130.919512,30.6853722 131.447666,30.1416414 C131.714535,29.8694821 132.025196,29.6590435 132.379356,29.509738 C132.73381,29.3610202 133.101489,29.2866614 133.483571,29.2866614 Z M98.2700917,29.2866908 L98.2700917,30.4552712 C97.9456166,30.5340387 97.6787476,30.6657097 97.4697787,30.8517539 C97.2946092,31.0084071 97.1564721,31.1991538 97.0559554,31.4242878 C96.9551448,31.6494217 96.9048864,31.8807278 96.9048864,32.1184998 C96.9048864,32.3642073 96.9577899,32.6010976 97.063597,32.8285829 C97.169698,33.0560681 97.3166523,33.2482843 97.5050477,33.4049376 C97.706669,33.5727594 97.9614877,33.6956131 98.2700917,33.7740867 L98.2700917,34.9391403 C97.7231278,34.8603728 97.250229,34.6658053 96.8499255,34.3545561 C96.4969413,34.0826907 96.2236063,33.7479289 96.0299206,33.3505645 C95.8418191,32.963193 95.7477684,32.5528966 95.7477684,32.1184998 C95.7477684,31.4751339 95.9423358,30.8999549 96.3323525,30.3926687 C96.8026062,29.7781059 97.4486172,29.4095445 98.2700917,29.2866908 Z M54.9411507,29.3532904 L56.6593402,33.5267921 L55.9924617,34.9075745 L53.6935089,29.3532904 L54.9411507,29.3532904 Z M78.8406783,33.6718653 L78.8406783,34.797829 L76.726594,34.797829 L76.726594,33.6718653 L78.8406783,33.6718653 Z M76.0714718,29.4278257 L76.0714718,34.797829 L74.9143538,34.797829 L74.9143538,29.4278257 L76.0714718,29.4278257 Z M64.2807419,31.6351965 L65.4378599,32.6474176 L65.4378599,34.796771 L64.2807419,34.796771 L64.2807419,31.6351965 Z M60.8328712,29.1795905 L63.7278705,34.796771 L62.4332033,34.796771 L61.9667704,33.8982925 L60.3623236,33.8982925 L60.9389722,32.7726227 L61.3936487,32.7726227 L60.1815698,30.434874 L60.8328712,29.1795905 Z M59.8327003,31.129086 L60.4757723,32.3884842 L59.2366538,34.796771 L57.9458074,34.796771 L59.8327003,31.129086 Z M73.8224247,29.3098214 L73.8224247,32.6165866 C73.8197795,33.0298221 73.7806897,33.3460677 73.7048612,33.5659113 C73.5476202,34.0211756 73.2378405,34.3688695 72.7749345,34.6092867 C72.5974138,34.698341 72.403728,34.7585922 72.1941712,34.7900404 L72.1941712,33.6564351 C72.3564088,33.5882483 72.4716209,33.4953732 72.5398077,33.3778098 C72.6209265,33.2287982 72.6626615,32.9919079 72.6653067,32.6677267 L72.6653067,29.3098214 L73.8224247,29.3098214 Z M71.0726161,32.8913911 C71.1011253,33.2652428 71.2633628,33.5203555 71.5590348,33.6564351 L71.5590348,34.7900404 C71.0335263,34.727144 70.607065,34.4685045 70.2802387,34.0132401 C70.0577499,33.6943493 69.9413621,33.3204976 69.9307814,32.8913911 L71.0726161,32.8913911 Z M106.70321,29.4198901 L106.70321,34.7898935 L105.546092,34.7898935 L105.546092,29.4198901 L106.70321,29.4198901 Z M83.5649645,33.6642237 L83.5649645,34.7898935 L81.4508802,34.7898935 L81.4508802,33.6642237 L83.5649645,33.6642237 Z M103.122228,29.4198901 L103.122228,34.7898935 L101.964816,34.7898935 L101.964816,29.4198901 L103.122228,29.4198901 Z M141.367697,29.4198901 L139.182781,32.412761 L139.182781,34.7898935 L138.025663,34.7898935 L138.025663,32.0362642 L139.940183,29.4198901 L141.367697,29.4198901 Z M121.531779,29.4198901 L121.531779,34.7898935 L120.374661,34.7898935 L120.374661,29.4198901 L121.531779,29.4198901 Z M123.587081,33.6642237 L123.587081,34.7898935 L122.033775,34.7898935 L122.033775,33.6642237 L123.587081,33.6642237 Z M108.095514,31.6283191 L109.252926,32.6402463 L109.252926,34.7898935 L108.095514,34.7898935 L108.095514,31.6283191 Z M88.8132897,31.2006821 L88.8132897,34.7898935 L87.6558778,34.7898935 L87.6558778,31.2006821 L88.8132897,31.2006821 Z M91.8960967,29.4198901 L91.8960967,34.7898935 L90.7386847,34.7898935 L90.7386847,29.4198901 L91.8960967,29.4198901 Z M94.6650092,33.6642237 L94.6650092,34.7898935 L92.5509249,34.7898935 L92.5509249,33.6642237 L94.6650092,33.6642237 Z M80.7960519,29.4198901 L80.7960519,34.7898935 L79.63864,34.7898935 L79.63864,29.4198901 L80.7960519,29.4198901 Z M127.152192,29.3570819 L127.322639,29.3624318 C128.732139,29.4511483 129.858208,30.6319781 129.858208,32.0628041 C129.858208,33.5511571 128.640251,34.7688203 127.152192,34.7688203 C125.664133,34.7688203 124.44647,33.5511571 124.44647,32.0628041 C124.44647,30.574745 125.664133,29.3570819 127.152192,29.3570819 L127.152192,29.3570819 Z M116.573512,29.3570819 L116.743959,29.3624318 C118.153458,29.4511483 119.279528,30.6319781 119.279528,32.0628041 C119.279528,33.5511571 118.061571,34.7688203 116.573512,34.7688203 C115.085453,34.7688203 113.86779,33.5511571 113.86779,32.0628041 C113.86779,30.574745 115.085453,29.3570819 116.573512,29.3570819 L116.573512,29.3570819 Z M116.573512,30.4665867 C115.695607,30.4665867 114.977001,31.1848992 114.977001,32.0628041 C114.977001,32.9410029 115.695607,33.6596093 116.573512,33.6596093 L116.573512,33.6596093 L116.718305,33.6530514 C117.529338,33.5792716 118.170317,32.8922141 118.170317,32.0628041 C118.170317,31.1848992 117.451711,30.4665867 116.573512,30.4665867 Z M127.152192,30.4665867 C126.274287,30.4665867 125.555681,31.1848992 125.555681,32.0628041 C125.555681,32.9410029 126.274287,33.6596093 127.152192,33.6596093 L127.152192,33.6596093 L127.296939,33.6530514 C128.107724,33.5792716 128.748704,32.8922141 128.748704,32.0628041 C128.748704,31.1848992 128.030097,30.4665867 127.152192,30.4665867 Z M136.233085,31.5615137 C136.272469,31.7604898 136.292455,31.9471217 136.292455,32.1225851 C136.292455,32.2977546 136.272469,32.4858561 136.233085,32.6874774 L133.483571,32.6874774 L133.483571,31.5615137 L136.233085,31.5615137 Z M78.8406783,31.5536663 L78.8406783,32.6793361 L76.726594,32.6793361 L76.726594,31.5536663 L78.8406783,31.5536663 Z M83.5649645,31.5460247 L83.5649645,32.6716945 L81.4508802,32.6716945 L81.4508802,31.5460247 L83.5649645,31.5460247 Z M94.6650092,31.5460247 L94.6650092,32.6716945 L92.5509249,32.6716945 L92.5509249,31.5460247 L94.6650092,31.5460247 Z M105.083186,31.5380891 L105.083186,32.6637589 L103.58484,32.6637589 L103.58484,31.5380891 L105.083186,31.5380891 Z M58.4819848,29.3255455 L57.0932668,32.6599381 L56.4225675,31.2753349 L57.2425723,29.3255455 L58.4819848,29.3255455 Z M137.590384,29.4198901 L138.335443,30.4788427 L137.617718,31.4555008 L136.178154,29.4198901 L137.590384,29.4198901 Z M98.9134575,29.2866908 C99.2949508,29.3363613 99.6482289,29.4471648 99.9724101,29.6196892 C100.317459,29.8136688 100.606665,30.067018 100.83944,30.3806184 L99.9330263,31.0986371 C99.6667452,30.7482981 99.3263991,30.5340387 98.9134575,30.4552712 L98.9134575,29.2866908 Z M78.8406783,29.4278257 L78.8406783,30.5534955 L76.726594,30.5534955 L76.726594,29.4278257 L78.8406783,29.4278257 Z M94.6650092,29.4198901 L94.6650092,30.5458538 L92.5509249,30.5458538 L92.5509249,29.4198901 L94.6650092,29.4198901 Z M90.0409458,29.4198901 L90.0409458,30.5458538 L86.4202862,30.5458538 L86.4202862,29.4198901 L90.0409458,29.4198901 Z M83.5649645,29.4198901 L83.5649645,30.5458538 L81.4508802,30.5458538 L81.4508802,29.4198901 L83.5649645,29.4198901 Z M78.5878287,10.6137392 L78.5878287,12.7854296 L60.927451,12.7854296 L60.927451,15.1860747 L77.2161575,15.1860747 L77.2161575,23.7017815 C77.2161575,23.7017815 77.101827,26.0454083 73.9011628,25.8164536 L66.8711638,25.8164536 L65.4994926,23.7188282 L71.615142,23.7188282 C71.615142,23.7188282 72.672625,23.844621 73.0438315,22.7304137 L73.0438315,17.3748118 L60.927451,17.3748118 L60.927451,23.7590936 C60.927451,23.7590936 61.1558179,25.3024075 59.0981641,25.8737657 L54.4688103,25.8737657 L53.1541573,23.7017815 L55.6968917,23.7013972 C55.8399191,23.6954788 56.49482,23.6194544 56.6978128,22.7304137 L56.6978128,12.7284113 L54.2974616,12.7284113 L53.097139,10.6137392 L78.5878287,10.6137392 Z M90.3045818,10.2136415 L89.7041266,10.9772159 L95.2769269,10.9772159 L95.2769269,10.2565521 L99.5203787,10.2565521 L99.5203787,10.9539972 L106.250591,10.9539972 L106.250591,12.6713049 L99.5441853,12.6713049 L99.5441853,13.3572875 L106.278806,13.3572875 L106.278806,15.1574774 L99.5632894,15.1574774 L99.5632894,15.84346 L106.278806,15.84346 L106.278806,17.64365 L99.5920924,17.64365 L99.5920924,18.4154539 L106.250591,18.4154539 L106.250591,20.1298225 L97.1341351,20.1298225 L97.1341351,20.8440203 L107.650477,20.8440203 L107.650477,22.9589863 L104.135625,22.9589863 C104.135625,22.9589863 104.050097,23.9303542 104.707277,23.9303542 L107.621968,23.9303542 L107.621968,25.8163654 L101.220934,25.8163654 C101.220934,25.8163654 100.163451,25.7305441 99.9632989,24.6163367 L99.9632989,22.9874955 L97.1059199,22.9874955 L97.1059199,25.8163654 L92.8192635,25.8163654 L92.8192635,22.9874955 L89.9900996,22.9874955 L89.9900996,24.5305154 C89.9900996,24.5305154 90.0186088,25.5309802 88.7042497,25.8163654 L82.6744216,25.8163654 L81.474099,23.9591572 L85.0747728,23.9591572 C85.0747728,23.9591572 85.389255,24.0161755 85.7319524,23.4160142 L85.7319524,22.9589863 L82.8172611,22.9589863 L81.474099,20.8158051 L92.8192635,20.8158051 L92.8192635,20.1013134 L88.5899192,20.1013134 L88.5899192,18.4154539 L95.3339451,18.4154539 L95.3339451,15.1574774 L88.5899192,15.1574774 L88.5899192,13.3284844 L95.2863319,13.3284844 L95.2863319,12.6713049 L87.7896062,12.6713049 L87.7896062,20.0725103 L83.5032437,20.0725103 L83.5032437,14.4714949 L82.788752,14.4714949 L81.4311883,12.3568227 L83.4888422,12.3568227 L85.5891128,10.2136415 L90.3045818,10.2136415 Z M136.103207,10.2134945 L136.103207,21.4731316 L137.456362,21.4731316 L137.456362,23.644822 L136.103207,23.644822 L136.103207,25.7880032 L131.769819,25.7880032 L131.769819,23.6733311 L124.73982,23.6733311 L124.73982,21.5013468 L131.788041,21.5013468 L131.816551,10.2134945 L136.103207,10.2134945 Z M160.689511,10.2134945 L160.689511,11.4993445 L166.390749,11.4993445 L166.390749,13.6857303 L160.732421,13.6857303 L160.732421,15.5288309 L166.347544,15.5288309 L166.347544,17.4577528 L161.032208,21.7014986 L163.28296,23.4587779 C163.28296,23.4587779 163.604202,23.6521697 163.732934,23.6304205 L166.219106,23.6304205 L166.219106,25.7736017 L161.953905,25.7736017 C161.953905,25.7736017 161.589753,25.859423 160.6466,25.2378064 L158.653606,23.6089651 L156.574497,25.2378064 C156.574497,25.2378064 156.124229,25.7521464 155.288647,25.7521464 L152.116492,25.7521464 L150.744821,23.6733311 L153.510219,23.6730901 C153.604034,23.6690779 153.985554,23.6230923 154.431316,23.1589911 L156.21005,21.7229539 L151.945143,18.3365394 L156.68148,18.3365394 L158.631857,19.8369426 L161.354038,17.6508507 L151.837866,17.6508507 L151.837866,15.5073756 L156.424604,15.5073756 L156.424604,13.7712577 L151.837866,13.7712577 L151.837866,11.6066211 L156.44988,11.6066211 L156.446059,10.2134945 L160.689511,10.2134945 Z M149.344229,10.2421506 L149.344229,11.5853128 L151.144419,11.5853128 L151.144419,13.6714757 L149.316013,13.6714757 L149.316013,15.4716657 L151.173222,15.4716657 L151.173222,17.64365 L149.373032,17.64365 L149.373032,23.5591476 C149.373032,23.5591476 149.173174,25.5591954 147.458511,25.7305441 L141.314353,25.7305441 L139.913878,23.6449689 L144.029186,23.6449689 C144.029186,23.6449689 144.800402,23.7590055 145.115178,22.8446559 L145.115178,19.986983 L143.772016,21.3586542 C143.772016,21.3586542 143.40081,21.7871729 142.485872,21.8159759 L141.285844,21.8159759 L139.942682,19.7871251 L140.62837,19.7583221 C140.62837,19.7583221 141.057183,19.8726525 141.771675,18.9882817 L145.115178,15.58629 L145.115178,13.728494 L141.371371,13.728494 L139.942682,11.5853128 L145.115178,11.5853128 L145.115178,10.2421506 L149.344229,10.2421506 Z M120.481555,10.2134945 L124.7109,10.2422976 C124.7109,10.2422976 124.996873,12.6711579 122.968022,12.6426488 L120.053037,12.6711579 L120.053037,14.1571596 L124.7109,14.1571596 L124.7109,15.8148039 L120.053037,15.8148039 L120.053037,25.7306911 L116.195193,25.7306911 L116.195193,15.8433131 L112.051376,15.8433131 L110.936875,14.1286505 L116.195193,14.1286505 L116.195193,12.6996671 L112.051376,12.6996671 L110.908366,10.9564954 L119.395563,10.9850045 C119.395563,10.9850045 120.338716,11.0708258 120.481555,10.2134945 Z M124.05372,16.5576578 L124.025211,25.3878467 L120.824547,25.4163558 L120.824547,16.5576578 L124.05372,16.5576578 Z M115.766792,16.5290899 L114.394827,25.3880818 L110.908189,25.3880818 L112.223136,16.5290899 L115.766792,16.5290899 Z M129.033325,16.5791719 L129.376316,18.3152898 C129.376316,18.3152898 129.483299,18.8581389 130.233647,19.0826851 L131.11214,19.0867998 L131.11214,20.8226238 L127.211679,20.8226238 C127.211679,20.8226238 125.882625,20.8226238 125.325668,19.4509525 L124.746962,16.5791719 L129.033325,16.5791719 Z M94.5621412,15.9574084 L94.5621412,17.6150527 L88.5899192,17.6150527 L88.5899192,15.9574084 L94.5621412,15.9574084 Z M128.969047,10.9566129 L129.483387,13.3284551 C129.754664,14.1284742 130.597888,14.1857863 130.597888,14.1857863 L130.597888,14.1857863 L131.093712,14.1951914 L131.093712,15.8719398 L127.054233,15.8828144 C125.810999,15.7002972 125.425391,14.3574289 125.425391,14.3574289 L125.425391,14.3574289 L124.7109,10.9566129 L128.969047,10.9566129 Z" id="形状结合" opacity="0.8"></path>
                </g>
            </g>
        </g>
    </g>
</svg>