<?xml version="1.0" encoding="UTF-8"?>
<svg width="18px" height="18px" viewBox="0 0 18 18" version="1.1" xmlns="http://www.w3.org/2000/svg" xmlns:xlink="http://www.w3.org/1999/xlink">
    <title>icon_nav_rights_normal</title>
    <g id="页面-1" stroke="none" stroke-width="1" fill="none" fill-rule="evenodd">
        <g id="切图" transform="translate(-182.000000, -1562.000000)" fill-rule="nonzero">
            <g id="编组" transform="translate(182.000000, 1562.000000)">
                <path d="M14.2285526,7.38421911 L14.2285526,5.05591155 C14.2285526,2.2666164 11.883592,0 8.99999466,0 C6.10777486,0.00762153957 3.76796409,2.26960785 3.77013276,5.05591155 L3.77013276,7.38547556 L3.29116429,7.38547556 C2.57714354,7.38686205 1.99928012,7.94524853 1.99999466,8.63311974 L1.99999466,16.749843 C1.99999466,17.4408845 2.57776417,18 3.29116429,18 L14.7088253,18 C15.4222254,18 15.9999947,17.4396281 15.9999947,16.749843 L15.9999947,8.63311974 C16.0006807,8.30255695 15.8650367,7.98526821 15.6228966,7.75105377 C15.3807564,7.51683932 15.051955,7.3848849 14.7088253,7.38421911 L14.2285526,7.38421911 Z M12.2213984,7.38547556 L5.77860845,7.38547556 L5.77860845,5.13632367 C5.77860845,3.41877121 7.22627601,2.02035431 9.00129899,2.02035431 C10.7832151,2.0252053 12.224267,3.4196646 12.2213984,5.13632367 L12.2213984,7.38296269 L12.2213984,7.38547556 Z" id="形状" fill="#5283FA"></path>
                <path d="M9.72513275,15.4191481 C9.72513275,15.5083553 9.64948885,15.5837417 9.55558612,15.5837417 L8.44701186,15.5837417 C8.3539597,15.5823934 8.27886474,15.5100488 8.27746522,15.4204046 L8.27746522,13.4289484 C7.61180817,13.1058105 7.26358173,12.3846086 7.43587979,11.6859647 C7.60817785,10.9873208 8.25590811,10.4940776 9.00129899,10.4939063 C9.74549782,10.4959241 10.3913703,10.9888508 10.5636869,11.6863129 C10.7360034,12.3837751 10.3898943,13.1041598 9.72643696,13.4289484 L9.72513275,15.4191481 Z" id="路径" fill="#DBE5FD"></path>
            </g>
        </g>
    </g>
</svg>