<?xml version="1.0" encoding="UTF-8"?>
<svg width="18px" height="18px" viewBox="0 0 18 18" version="1.1" xmlns="http://www.w3.org/2000/svg" xmlns:xlink="http://www.w3.org/1999/xlink">
    <title>icon_nav_scene_normal</title>
    <g id="页面-1" stroke="none" stroke-width="1" fill="none" fill-rule="evenodd">
        <g id="切图" transform="translate(-148.000000, -1562.000000)" fill-rule="nonzero">
            <g id="编组" transform="translate(148.000000, 1562.000000)">
                <path d="M16.0653093,3.81204152 L9.93469069,0.252027908 C9.35634828,-0.0840093027 8.64365172,-0.0840093027 8.06530931,0.252027908 L1.93469069,3.81204152 C1.35628161,4.14781715 1,4.76849504 1,5.44019642 L1,12.5598036 C1,13.2314817 1.35634468,13.8521194 1.93469069,14.1879585 L8.06530931,17.7479721 C8.64365172,18.0840093 9.35634828,18.0840093 9.93469069,17.7479721 L16.0653093,14.1879585 C16.6436553,13.8521194 17,13.2314817 17,12.5598036 L17,5.44019642 C17,4.76849504 16.6437184,4.14781715 16.0653093,3.81204152 L16.0653093,3.81204152 Z" id="形状" fill="#5283FA"></path>
                <path d="M13.8551292,6.71508034 L9.6540329,9.15437227 L9.6540329,14.0333762 C9.6540329,14.3966773 9.36121239,14.6911911 9,14.6911911 C8.63878761,14.6911911 8.3459671,14.3966773 8.3459671,14.0333762 L8.3459671,9.15437227 L4.14445315,6.71508034 C3.8316602,6.53323947 3.72454109,6.1308652 3.90514225,5.81615065 C3.99198097,5.66462652 4.13517181,5.55406079 4.30314484,5.50883035 C4.47111788,5.46359991 4.65007986,5.48741891 4.80057426,5.57503587 L9,8.01474786 L13.2010963,5.57503587 C13.5141432,5.39370934 13.9140537,5.50159533 14.0948577,5.81615065 C14.2753888,6.13097516 14.1680737,6.53338339 13.8551292,6.71508034 L13.8551292,6.71508034 Z" id="路径" fill="#DBE5FD"></path>
            </g>
        </g>
    </g>
</svg>