<?xml version="1.0" encoding="UTF-8"?>
<svg width="20px" height="20px" viewBox="0 0 20 20" version="1.1" xmlns="http://www.w3.org/2000/svg" xmlns:xlink="http://www.w3.org/1999/xlink">
    <!-- Generator: Sketch 57 (83077) - https://sketch.com -->
    <title>security_incidents</title>
    <desc>Created with Sketch.</desc>
    <g id="UI设计图" stroke="none" stroke-width="1" fill="none" fill-rule="evenodd">
        <g id="事件管理" transform="translate(-1501.000000, -216.000000)" fill="#FFFFFF" fill-rule="nonzero">
            <g id="编组-24" transform="translate(103.000000, 103.000000)">
                <g id="编组-16" transform="translate(294.000000, 0.000000)">
                    <g id="编组-15" transform="translate(56.000000, 32.000000)">
                        <g id="编组-5">
                            <g id="编组-10" transform="translate(3.000000, 72.000000)">
                                <g id="编组-32" transform="translate(1035.000000, 0.000000)">
                                    <g id="security_incidents" transform="translate(10.000000, 9.000000)">
                                        <path d="M16.9791,3.39445 C16.77,3.2015 16.4963,3.105025 16.223875,3.105025 C16.191575,3.105025 16.175425,3.105025 16.14355,3.105025 C16.1274,3.105025 15.9506,3.121175 15.677325,3.121175 C15.2111,3.121175 14.327525,3.088875 13.47625,2.8802 C12.38315,2.6235 11.113675,1.4182 10.743925,1.1768 C10.56755,1.064175 10.3423,1 10.1332,1 C9.924525,1 9.71585,1.064175 9.5229,1.1768 C9.474875,1.2091 8.157375,2.574625 6.87175,2.8802 C6.02005,3.088875 5.104175,3.121175 4.654525,3.121175 C4.3651,3.121175 4.188725,3.105025 4.172575,3.105025 C4.156425,3.105025 4.124125,3.105025 4.1084,3.105025 C3.818975,3.105025 3.56185,3.2015 3.353175,3.39445 C3.12835,3.5874 3,3.8764 3,4.165825 L3,6.8327 C3,16.666775 9.667825,17.9354 9.9411,17.98385 C10.005275,18 10.069875,18 10.133625,18 C10.1978,18 10.262825,18 10.327,17.98385 C10.616,17.9354 17.316125,16.66635 17.316125,6.8327 L17.316125,4.165825 C17.316125,3.8764 17.186925,3.5874 16.9791,3.39445 L16.9791,3.39445 Z M14.504325,7.202875 L9.89265,11.6692 C9.86035,11.71765 9.828475,11.7661 9.780025,11.7984 C9.65125,11.92675 9.474875,11.990925 9.298075,11.990925 C9.12085,11.990925 8.944475,11.92675 8.799975,11.7984 C8.767675,11.7661 8.720075,11.718075 8.7035,11.6692 L6.22915,9.275175 C5.972025,9.01805 5.972025,8.61685 6.22915,8.359725 C6.48585,8.102175 6.919775,8.102175 7.1769,8.359725 L9.298075,10.40015 L13.55615,6.287 C13.82985,6.029875 14.246775,6.029875 14.5039,6.287 C14.777175,6.527975 14.777175,6.94575 14.504325,7.202875 L14.504325,7.202875 Z"></path>
                                    </g>
                                </g>
                            </g>
                        </g>
                    </g>
                </g>
            </g>
        </g>
    </g>
</svg>