<?xml version="1.0" encoding="UTF-8"?>
<svg width="20px" height="20px" viewBox="0 0 20 20" version="1.1" xmlns="http://www.w3.org/2000/svg" xmlns:xlink="http://www.w3.org/1999/xlink">
    <!-- Generator: Sketch 57 (83077) - https://sketch.com -->
    <title>traffic_accident</title>
    <desc>Created with Sketch.</desc>
    <defs>
        <polygon id="path-1" points="0.561375 0.9331875 7.086375 0.9331875 7.086375 10.4596875 0.561375 10.4596875"></polygon>
        <polygon id="path-3" points="7.46421035e-05 0.802959465 12.4953431 0.802959465 12.4953431 12.375 7.46421035e-05 12.375"></polygon>
    </defs>
    <g id="UI设计图" stroke="none" stroke-width="1" fill="none" fill-rule="evenodd">
        <g id="事件管理" transform="translate(-467.000000, -216.000000)">
            <g id="编组-24" transform="translate(103.000000, 103.000000)">
                <g id="编组-16" transform="translate(294.000000, 0.000000)">
                    <g id="编组-15" transform="translate(56.000000, 32.000000)">
                        <g id="编组-5">
                            <g id="编组-10" transform="translate(3.000000, 72.000000)">
                                <g id="编组-23">
                                    <g id="traffic_accident" transform="translate(11.000000, 9.000000)">
                                        <g transform="translate(1.000000, 0.000000)">
                                            <polygon id="Fill-1" fill="#FFFFFF" points="5.028075 3.3006375 9.834075 5.4763875 6.398325 1.4342625"></polygon>
                                            <polygon id="Fill-2" fill="#FFFFFF" points="10.8952875 2.4175125 9.2269125 3.1240125 10.5296625 6.0388875"></polygon>
                                            <g id="编组" transform="translate(0.000000, 0.959062)">
                                                <g transform="translate(10.125000, 5.625000)">
                                                    <mask id="mask-2" fill="white">
                                                        <use xlink:href="#path-1"></use>
                                                    </mask>
                                                    <g id="Clip-4"></g>
                                                    <path d="M4.201875,6.6774375 C4.051125,6.7696875 3.954375,6.9260625 3.9375,7.1049375 L3.934125,7.1375625 L3.94425,7.1668125 C4.005,7.3333125 4.134375,7.4671875 4.30425,7.5369375 C4.474125,7.5954375 4.649625,7.6314375 4.833,7.6438125 C4.9275,7.6460625 5.04,7.6123125 5.106375,7.6843125 C5.128875,7.7090625 5.139,7.7394375 5.137875,7.7720625 L5.1255,7.9678125 L3.747375,7.8260625 C3.709125,7.2838125 3.666375,6.7483125 3.62475,6.2285625 L3.628125,6.2285625 C4.161375,6.2285625 4.703625,6.1959375 5.24025,6.1340625 L5.234625,6.2161875 C5.232375,6.2634375 5.19975,6.3050625 5.153625,6.3208125 C4.83525,6.4198125 4.52025,6.5368125 4.201875,6.6774375 L4.201875,6.6774375 Z M7.079625,5.6053125 C7.0245,5.3353125 6.894,4.7008125 6.255,4.7008125 C6.213375,4.6659375 6.18525,4.6175625 6.174,4.5579375 L6.114375,4.3093125 C6.010875,3.8851875 5.904,3.4464375 5.841,3.0166875 C5.76675,2.2303125 5.203125,1.5721875 4.44825,1.3809375 C4.280625,1.3246875 4.109625,1.2763125 3.93975,1.2290625 L3.686625,1.1570625 C3.173625,1.0074375 2.63925,0.9331875 2.098125,0.9331875 C1.954125,0.9331875 1.81125,0.9376875 1.65825,0.9500625 C1.522125,0.9703125 1.387125,0.9871875 1.251,1.0051875 C1.078875,1.0265625 0.905625,1.0490625 0.732375,1.0760625 L0.561375,1.1030625 L0.62325,1.2650625 C0.721125,1.5238125 0.82125,1.7836875 0.9225,2.0424375 L0.95625,2.1268125 L1.04625,2.1313125 C1.93275,2.1751875 2.81925,2.2370625 3.670875,2.3146875 C3.978,2.3596875 4.276125,2.4463125 4.564125,2.5756875 C4.671,2.6173125 4.757625,2.7028125 4.795875,2.7928125 C4.928625,3.3125625 5.041125,3.8390625 5.1615,4.3970625 L5.2515,4.8121875 C4.262625,4.9404375 3.268125,4.9516875 2.28825,4.8470625 L2.0925,4.8256875 L2.136375,5.0180625 C2.196,5.2790625 2.242125,5.5456875 2.273625,5.8066875 C2.349,6.7393125 2.43675,7.8249375 2.505375,8.9015625 L2.512125,9.0196875 L4.150125,9.1895625 C4.167,9.5259375 4.222125,9.8589375 4.314375,10.1806875 L4.334625,10.2538125 L4.4055,10.2763125 C4.7835,10.3978125 5.175,10.4596875 5.571,10.4596875 C5.70375,10.4596875 5.837625,10.4529375 5.970375,10.4383125 L6.031125,10.4315625 L6.06825,10.3820625 C6.206625,10.1953125 6.287625,9.9725625 6.3045,9.7475625 C6.34725,9.4134375 6.368625,9.0714375 6.388875,8.7418125 L6.55425,6.1295625 L7.03575,6.0316875 L7.057125,5.9461875 C7.08525,5.8381875 7.093125,5.7290625 7.081875,5.6199375 L7.079625,5.6053125 Z" id="Fill-3" fill="#FFFFFF" mask="url(#mask-2)"></path>
                                                </g>
                                                <polygon id="Fill-5" fill="#FFFFFF" points="14.7866625 1.673775 13.0586625 0.166275 10.7040375 5.02065"></polygon>
                                                <g transform="translate(0.000000, 4.500000)">
                                                    <mask id="mask-4" fill="white">
                                                        <use xlink:href="#path-3"></use>
                                                    </mask>
                                                    <g id="Clip-8"></g>
                                                    <path d="M2.230425,9.0104625 C2.27655,8.9620875 2.338425,8.9362125 2.403675,8.9362125 L2.41155,8.9362125 C2.590425,8.9418375 2.7693,8.9429625 2.957175,8.9373375 C3.18555,8.9227125 3.413925,8.8799625 3.6423,8.8079625 C3.843675,8.7359625 4.0068,8.5807125 4.086675,8.3804625 L4.100175,8.3478375 L4.0968,8.3129625 C4.0743,8.0992125 3.9483,7.9102125 3.7458,7.8010875 C3.231675,7.5963375 2.69955,7.4219625 2.162925,7.2835875 C2.079675,7.2430875 2.023425,7.1643375 2.0178,7.0765875 L1.998675,6.8077125 L2.009925,6.8099625 C2.84805,6.9247125 3.7053,6.9832125 4.5558,6.9832125 C6.570675,6.9832125 8.5608,6.6603375 10.4733,6.0235875 L10.523925,6.2182125 L10.52505,6.2789625 L10.535175,6.2902125 C10.550925,6.4117125 10.4823,6.5343375 10.366425,6.5894625 C9.8658,6.8234625 9.369675,7.0957125 8.8893,7.4017125 C8.674425,7.5457125 8.61705,7.8382125 8.762175,8.0542125 C8.8488,8.1824625 8.9928,8.2600875 9.146925,8.2623375 L9.173925,8.2623375 C9.446175,8.2780875 9.7218,8.2780875 10.00755,8.2589625 C10.148175,8.2342125 10.287675,8.2060875 10.42605,8.1745875 C10.510425,8.1565875 10.593675,8.1723375 10.6623,8.2229625 C10.73205,8.2735875 10.775925,8.3523375 10.7838,8.4378375 C10.832175,9.0295875 10.8783,9.6179625 10.917675,10.2074625 C10.881675,10.2130875 10.8468,10.2164625 10.809675,10.2209625 C10.782675,10.0207125 10.7343,9.8463375 10.663425,9.6787125 L10.32705,8.8923375 L2.5308,9.6348375 L2.507175,10.6754625 C2.504925,10.7924625 2.495925,10.9105875 2.480175,11.0332125 C2.419425,11.0410875 2.358675,11.0467125 2.297925,11.0512125 C2.270925,10.7913375 2.252925,10.5190875 2.23155,10.2130875 L2.162925,9.1949625 C2.158425,9.1263375 2.18205,9.0599625 2.230425,9.0104625 M2.345175,5.5319625 L2.471175,4.9930875 C2.6298,4.3169625 2.779425,3.6779625 2.954925,3.0468375 C3.0213,2.9073375 3.1428,2.7982125 3.2958,2.7453375 C3.68055,2.5867125 4.0833,2.4787125 4.487175,2.4247125 C5.630175,2.3279625 6.83955,2.2525875 8.314425,2.1850875 L8.370675,2.1828375 C8.78355,2.1828375 9.146925,2.4753375 9.2403,2.8927125 C9.398925,3.3652125 9.583425,3.8242125 9.779175,4.3102125 C9.844425,4.4733375 9.9108,4.6387125 9.9783,4.8085875 C7.526925,5.6107125 4.9248,5.8604625 2.345175,5.5319625 M11.828925,6.0573375 L12.47355,5.7963375 L12.4848,5.7153375 C12.506175,5.5623375 12.494925,5.4025875 12.452175,5.2563375 L12.45105,5.2147125 L12.43755,5.2012125 C12.314925,4.7422125 11.90655,4.4249625 11.428425,4.4249625 C11.36205,4.4249625 11.300175,4.4305875 11.239425,4.4418375 C11.156175,4.4080875 11.0898,4.3405875 11.052675,4.2494625 C10.715175,3.5035875 10.391175,2.7532125 10.09305,2.0264625 C9.9243,1.5449625 9.50805,1.1815875 9.0063,1.0769625 C8.575425,0.9903375 8.132175,0.9385875 7.70355,0.8879625 C7.526925,0.8677125 7.34805,0.8463375 7.162425,0.8227125 C6.262425,0.7608375 5.3658,0.8440875 4.496175,1.0758375 L4.1958,1.1534625 C3.956175,1.2142125 3.71655,1.2749625 3.49605,1.3447125 C2.52855,1.5449625 1.79055,2.3358375 1.66005,3.3112125 C1.57455,3.8489625 1.43055,4.3889625 1.292175,4.9098375 L1.213425,5.2090875 C1.193175,5.3013375 1.13355,5.3789625 1.06155,5.4048375 C0.347175,5.4048375 0.128925,5.9504625 0.0063,6.4994625 C-0.008325,6.6344625 0.002925,6.7660875 0.038925,6.8909625 L0.06255,6.9742125 L0.707175,7.0957125 L0.925425,10.3053375 C0.952425,10.7080875 0.979425,11.1243375 1.037925,11.5248375 C1.064925,11.8105875 1.1718,12.0772125 1.348425,12.2977125 L1.38555,12.3438375 L1.44405,12.3505875 C1.61505,12.3663375 1.791675,12.3753375 1.969425,12.3753375 C2.48805,12.3753375 3.0033,12.3010875 3.50055,12.1537125 L3.57255,12.1323375 L3.59505,12.0614625 C3.722175,11.6587125 3.7953,11.2447125 3.814425,10.8295875 L9.49005,10.2895875 C9.5193,10.3987125 9.52605,10.5202125 9.533925,10.6462125 C9.551925,10.9555875 9.572175,11.3065875 9.941175,11.5192125 L10.0008,11.5383375 C10.674675,11.5889625 11.3553,11.5102125 12.00105,11.3077125 L12.0528,11.2919625 L12.080925,11.2447125 C12.209175,11.0264625 12.2688,10.7755875 12.254175,10.5202125 C12.177675,9.2703375 12.069675,8.0328375 11.957175,6.7627125 C11.925675,6.5298375 11.882925,6.2935875 11.828925,6.0573375" id="Fill-7" fill="#FFFFFF" mask="url(#mask-4)"></path>
                                                </g>
                                            </g>
                                        </g>
                                    </g>
                                </g>
                            </g>
                        </g>
                    </g>
                </g>
            </g>
        </g>
    </g>
</svg>