<?xml version="1.0" encoding="UTF-8"?>
<svg width="20px" height="20px" viewBox="0 0 20 20" version="1.1" xmlns="http://www.w3.org/2000/svg" xmlns:xlink="http://www.w3.org/1999/xlink">
    <!-- Generator: Sketch 57 (83077) - https://sketch.com -->
    <title>tunnel_failure</title>
    <desc>Created with Sketch.</desc>
    <g id="UI设计图" stroke="none" stroke-width="1" fill="none" fill-rule="evenodd">
        <g id="事件管理" transform="translate(-1132.000000, -215.000000)" fill="#FFFFFF" fill-rule="nonzero">
            <g id="编组-24" transform="translate(103.000000, 103.000000)">
                <g id="编组-16" transform="translate(294.000000, 0.000000)">
                    <g id="编组-15" transform="translate(56.000000, 32.000000)">
                        <g id="编组-5">
                            <g id="编组-10" transform="translate(3.000000, 72.000000)">
                                <g id="编组-31" transform="translate(667.000000, 0.000000)">
                                    <g id="tunnel_failure" transform="translate(9.000000, 8.000000)">
                                        <g transform="translate(3.000000, 1.000000)">
                                            <g id="编组备份-2" transform="translate(0.000000, 2.958904)">
                                                <path d="M7.428,0.001 L7.39726027,0 C11.4195205,0 14.6921918,3.26454452 14.7920548,7.32940068 L14.7945205,7.52054795 L14.7945205,14.4246575 C14.7945205,14.765107 14.5185317,15.0410959 14.1780822,15.0410959 C13.8376327,15.0410959 13.5616438,14.765107 13.5616438,14.4246575 L13.5616438,7.52054795 C13.5616438,4.18729878 11.002317,1.4619731 7.77245428,1.26484156 L7.24855065,0.993986186 L8.00240835,0.604056643 L7.428,0.001 Z M6.77445206,0.0262834836 L7.19270845,0.467655576 L6.17566258,0.99371803 L6.74581308,1.28799861 C3.70332105,1.61283434 1.32057807,4.18738679 1.23534247,7.34506849 L1.23287671,7.52054795 L1.23287671,14.4246575 C1.23287671,14.765107 0.956887859,15.0410959 0.616438356,15.0410959 C0.275988853,15.0410959 1.48498297e-15,14.765107 0,14.4246575 L0,7.52054795 C0,3.58057655 2.98072708,0.347869065 6.77445206,0.0262834836 Z" id="形状结合"></path>
                                                <path d="M7.2739726,3.69863014 C8.41603158,3.69863014 9.44109359,4.19416745 10.1414319,4.97974898 L9.12328767,5.85337556 L10.5090164,7.3123261 L9.49197054,7.83838855 L11.0950548,8.66863014 L11.0958904,15.0410953 L9.0874726,15.0410953 C8.77610223,15.0409534 8.51046882,14.8181526 8.45940411,14.5143008 L8.2740411,13.4140816 C8.24846938,13.2619205 8.1152959,13.1504469 7.95936986,13.1506844 L6.58857534,13.1506844 C6.4326493,13.1504469 6.29947583,13.2619205 6.27390411,13.4140816 L6.08917808,14.5143008 C6.03807387,14.8183876 5.77208386,15.0412616 5.4604726,15.0410953 L3.45205479,15.0410953 L3.45205479,7.47945184 C3.45205479,5.39136167 5.16318568,3.69863014 7.2739726,3.69863014 Z M7.64979452,10.6301365 L6.89815068,10.6301365 C6.76692383,10.6300586 6.64908163,10.7096098 6.60131507,10.8305201 L6.5860274,10.8834516 L6.39493151,11.8286571 C6.3781636,11.911458 6.39569763,11.997452 6.44360034,12.0673487 C6.49150306,12.1372455 6.56576443,12.1851938 6.64972603,12.2004379 L6.70705479,12.205479 L7.84089041,12.205479 C7.92625043,12.205479 8.00804235,12.1716041 8.06792007,12.1114224 C8.12779779,12.0512408 8.16074932,11.9698007 8.15938356,11.8853694 L8.1530137,11.8286571 L7.96191781,10.8834516 C7.93217258,10.7362339 7.80155603,10.6302273 7.64979452,10.6301365 Z M7.3440411,8.73972573 L7.20390411,8.73972573 C7.07770606,8.73993051 6.96353288,8.81382702 6.91280137,8.92813669 L6.89496575,8.97854764 L6.73571918,9.60868459 C6.71440354,9.69322175 6.72942652,9.78271674 6.77721797,9.85590144 C6.82500941,9.92908615 6.90130224,9.97942622 6.98796575,9.99495854 L7.04529452,9.99999964 L7.50328767,9.99999964 C7.59129988,9.99999964 7.67539053,9.9639798 7.73560176,9.90047692 C7.79581298,9.83697404 7.82677662,9.75165413 7.82114384,9.66476678 L7.81222603,9.60805446 L7.65297945,8.97791751 C7.61735701,8.83785887 7.49003474,8.73969328 7.3440411,8.73972573 Z M11.0950548,7.56363014 L11.0950548,8.11363014 L10.5648586,7.83865671 L11.0950548,7.56363014 Z M11.0857239,7.20156113 L9.83809537,5.88987034 L10.4458404,5.36947855 C10.807205,5.90004367 11.0361283,6.52619859 11.0857239,7.20156113 Z" id="形状结合"></path>
                                            </g>
                                            <polygon id="路径" points="1.97260274 2.67344659 2.41108714 2.21917808 3.45205479 3.24436163 3.0135704 3.69863014"></polygon>
                                            <polygon id="路径" points="12.3287671 3.99986723 13.3539507 2.95890411 13.8082192 3.39739305 12.7830356 4.43835616"></polygon>
                                            <polygon id="路径" points="6.4109589 0 7.5983154 0 7.5983154 2.46575342 6.4109589 2.46575342"></polygon>
                                        </g>
                                    </g>
                                </g>
                            </g>
                        </g>
                    </g>
                </g>
            </g>
        </g>
    </g>
</svg>